<svg id="Capa_1" enable-background="new 0 0 512 512" height="512" viewBox="0 0 512 512" width="512" xmlns="http://www.w3.org/2000/svg"><g><g><path d="m443.317 272.859v-33.718c0-4.506-2.928-8.489-7.229-9.833l-38.199-11.937c-3.173-.992-5.652-3.461-6.706-6.614-2.114-6.324-4.659-12.451-7.601-18.346-1.486-2.977-1.482-6.478.062-9.426l18.571-35.453c2.091-3.991 1.345-8.878-1.841-12.065l-23.842-23.842c-3.186-3.186-8.073-3.932-12.065-1.841l-35.453 18.571c-2.948 1.544-6.448 1.548-9.426.062-5.894-2.942-12.021-5.486-18.346-7.601-3.153-1.054-5.623-3.533-6.614-6.706l-11.937-38.199c-1.344-4.301-5.327-7.229-9.833-7.229h-33.718c-4.506 0-8.489 2.928-9.833 7.229l-11.937 38.199c-.992 3.173-3.461 5.652-6.614 6.706-6.324 2.114-12.451 4.659-18.346 7.601-2.977 1.486-6.478 1.482-9.426-.062l-35.453-18.571c-3.991-2.091-8.878-1.345-12.065 1.841l-23.842 23.842c-3.186 3.186-3.932 8.073-1.841 12.065l18.571 35.453c1.544 2.948 1.548 6.448.062 9.426-2.942 5.894-5.486 12.021-7.601 18.346-1.054 3.153-3.533 5.623-6.706 6.614l-38.199 11.937c-4.301 1.344-7.229 5.327-7.229 9.833v33.718c0 4.506 2.928 8.489 7.229 9.833l38.199 11.937c3.173.992 5.652 3.461 6.706 6.614 2.114 6.324 4.659 12.451 7.601 18.345 1.486 2.977 1.482 6.478-.062 9.426l-18.571 35.453c-2.091 3.991-1.345 8.878 1.841 12.065l23.842 23.842c3.186 3.186 8.073 3.932 12.065 1.841l35.453-18.571c2.948-1.544 6.448-1.548 9.426-.062 5.894 2.942 12.021 5.486 18.346 7.601 3.153 1.054 5.623 3.533 6.614 6.706l11.937 38.199c1.344 4.301 5.327 7.229 9.833 7.229h33.718c4.506 0 8.489-2.928 9.833-7.229l11.937-38.199c.992-3.173 3.461-5.652 6.614-6.706 6.324-2.114 12.451-4.659 18.346-7.601 2.977-1.486 6.478-1.482 9.426.062l35.453 18.571c3.991 2.091 8.878 1.345 12.065-1.841l23.842-23.842c3.186-3.186 3.932-8.073 1.841-12.065l-18.571-35.453c-1.544-2.948-1.548-6.448-.062-9.426 2.942-5.894 5.486-12.021 7.601-18.346 1.054-3.153 3.533-5.623 6.706-6.614l38.199-11.937c4.301-1.343 7.229-5.326 7.229-9.832zm-187.317 47.661c-35.634 0-64.52-28.887-64.52-64.52s28.887-64.52 64.52-64.52c35.634 0 64.52 28.887 64.52 64.52s-28.886 64.52-64.52 64.52z" fill="#f7e365"/><path d="m443.317 272.859v-33.718c0-4.506-2.928-8.489-7.229-9.833l-38.199-11.937c-3.173-.992-5.652-3.461-6.706-6.614-2.114-6.324-4.659-12.451-7.601-18.346-1.486-2.977-1.482-6.478.062-9.426l18.571-35.453c2.091-3.991 1.345-8.878-1.841-12.065l-23.842-23.842c-3.186-3.186-8.073-3.932-12.065-1.841l-10.502 5.501c6.931 19.831 10.634 41.178 10.448 63.417-.853 101.827-83.884 184.857-185.71 185.71-22.239.186-43.586-3.517-63.417-10.448l-5.501 10.502c-2.091 3.991-1.345 8.878 1.841 12.065l23.842 23.842c3.186 3.186 8.073 3.932 12.065 1.841l35.453-18.571c2.948-1.544 6.448-1.548 9.426-.062 5.894 2.942 12.021 5.486 18.346 7.601 3.153 1.054 5.623 3.533 6.614 6.706l11.937 38.199c1.344 4.301 5.327 7.229 9.833 7.229h33.718c4.506 0 8.489-2.928 9.833-7.229l11.937-38.199c.992-3.173 3.461-5.652 6.614-6.706 6.324-2.114 12.451-4.659 18.346-7.601 2.977-1.486 6.478-1.482 9.426.062l35.453 18.571c3.991 2.091 8.878 1.345 12.065-1.841l23.842-23.842c3.186-3.186 3.932-8.073 1.841-12.065l-18.571-35.453c-1.544-2.948-1.548-6.448-.062-9.426 2.942-5.894 5.486-12.021 7.601-18.346 1.054-3.153 3.533-5.623 6.706-6.614l38.199-11.937c4.299-1.342 7.227-5.325 7.227-9.831z" fill="#f3d332"/><path d="m256 162.341c-51.644 0-93.659 42.015-93.659 93.659s42.015 93.659 93.659 93.659 93.659-42.015 93.659-93.659-42.015-93.659-93.659-93.659zm0 143.61c-27.587 0-49.951-22.364-49.951-49.951s22.364-49.951 49.951-49.951 49.951 22.364 49.951 49.951-22.364 49.951-49.951 49.951z" fill="#dbb72b"/></g><path d="m256 0c-70.692 0-134.692 28.654-181.019 74.981l-13.509-13.509c-6.556-6.556-17.765-1.913-17.765 7.359v60.062c0 9.271 11.209 13.914 17.765 7.359l37.389-37.389-.334-.334c42.062-42.062 97.986-65.226 157.469-65.227 59.055-.001 115.722 23.472 157.479 65.231 40.145 40.147 63.075 92.922 65.079 149.366.16 4.508 3.811 8.101 8.321 8.101h16.659c4.68 0 8.478-3.859 8.325-8.537-4.502-137.433-117.331-247.463-255.859-247.463z" fill="#88f2a9"/><path d="m256 512c70.692 0 134.692-28.654 181.019-74.981l13.508 13.508c6.556 6.556 17.765 1.913 17.765-7.359v-60.062c0-9.271-11.209-13.914-17.765-7.359l-37.389 37.389.334.334c-42.062 42.062-97.986 65.226-157.469 65.227-59.055.001-115.722-23.472-157.479-65.231-40.145-40.147-63.075-92.922-65.079-149.366-.16-4.508-3.811-8.101-8.321-8.101h-16.66c-4.68 0-8.478 3.859-8.325 8.537 4.504 137.434 117.333 247.464 255.861 247.464z" fill="#80e29e"/></g></svg>